<svg xmlns="http://www.w3.org/2000/svg" width="24.895" height="24.895" viewBox="0 0 24.895 24.895"><defs><style>.a{fill:#fff;}</style></defs><path class="a" d="M23.137,13.032a18.646,18.646,0,0,0-3.615-.293c-.6,0-1.157.018-1.677.051V1.337A1.339,1.339,0,0,0,16.507,0H1.337A1.4,1.4,0,0,0,0,1.532V21.71a1.316,1.316,0,0,0,1.337,1.143H14.149v.559c0,.824,1.323,1.1,1.757,1.19a18.646,18.646,0,0,0,3.615.293,18.646,18.646,0,0,0,3.615-.293c.435-.09,1.757-.365,1.757-1.19v-9.19C24.895,13.4,23.572,13.123,23.137,13.032Zm1.028,5.782c-.008.016-.159.284-1.3.5a18.589,18.589,0,0,1-3.345.254,18.589,18.589,0,0,1-3.345-.254c-1.167-.224-1.3-.5-1.3-.5V17.4a4.755,4.755,0,0,0,1.028.313A18.646,18.646,0,0,0,19.522,18a18.646,18.646,0,0,0,3.615-.293,4.755,4.755,0,0,0,1.028-.313ZM9.384,18.89a.365.365,0,0,0-.365.365v.924H3.476a.324.324,0,0,1-.316-.219V16.337H9.019v1.216a.365.365,0,0,0,.729,0V16.337h4.4v3.841h-4.4v-.924A.365.365,0,0,0,9.384,18.89ZM15.608,13.1c-.559.137-1.459.443-1.459,1.123v1.386h-4.4V11.767h5.543a.316.316,0,0,1,.316.316ZM9.019,15.608H3.16V12.18c0-.247.127-.413.316-.413H9.019Zm15.146.909c-.008.016-.159.284-1.3.5a18.589,18.589,0,0,1-3.345.254,18.589,18.589,0,0,1-3.345-.254c-1.167-.224-1.3-.5-1.3-.5V15.1a4.755,4.755,0,0,0,1.028.313,18.642,18.642,0,0,0,3.615.293,18.646,18.646,0,0,0,3.615-.293,4.755,4.755,0,0,0,1.028-.313Zm-1.3-2.8c1.1.211,1.279.468,1.3.5-.018.032-.2.289-1.3.5a18.589,18.589,0,0,1-3.345.254,18.589,18.589,0,0,1-3.345-.254c-1.1-.211-1.279-.468-1.3-.5.018-.032.2-.289,1.3-.5a18.589,18.589,0,0,1,3.345-.254A18.589,18.589,0,0,1,22.867,13.722Zm-21.53,8.4a.632.632,0,0,1-.608-.413V9.822h12.01a.365.365,0,0,0,0-.729H.729V1.532c0-.487.239-.8.608-.8h15.17a.608.608,0,0,1,.608.608V9.092H14.441a.365.365,0,1,0,0,.729h2.674v3.03q-.414.043-.778.1v-.871a1.047,1.047,0,0,0-1.045-1.045H3.476A1.073,1.073,0,0,0,2.431,12.18v7.78a1.027,1.027,0,0,0,1.045.948H14.149v1.216Zm21.53,1.788a18.589,18.589,0,0,1-3.345.254,18.589,18.589,0,0,1-3.345-.254c-1.167-.224-1.3-.5-1.3-.5V21.99a4.755,4.755,0,0,0,1.028.313,18.646,18.646,0,0,0,3.615.293c.695,0,1.353-.024,1.957-.072a.365.365,0,0,0-.057-.727c-.584.046-1.223.069-1.9.069a18.589,18.589,0,0,1-3.345-.254c-1.167-.224-1.3-.5-1.3-.5V19.693a4.755,4.755,0,0,0,1.028.313,18.646,18.646,0,0,0,3.615.293,18.646,18.646,0,0,0,3.615-.293,4.755,4.755,0,0,0,1.028-.313v1.419c-.007.016-.142.253-1.107.463a.365.365,0,0,0,.155.713,4.585,4.585,0,0,0,.952-.3v1.418C24.158,23.425,24.006,23.693,22.867,23.912Z"/><path class="a" d="M63.955,44.887V41.045A1.047,1.047,0,0,0,62.909,40H54.862a.365.365,0,0,0,0,.729h8.047a.316.316,0,0,1,.316.316v3.841a.316.316,0,0,1-.316.316H51.045a.316.316,0,0,1-.316-.316V41.045a.316.316,0,0,1,.316-.316H53.16a.365.365,0,1,0,0-.729H51.045A1.047,1.047,0,0,0,50,41.045v3.841a1.047,1.047,0,0,0,1.045,1.045H62.909A1.047,1.047,0,0,0,63.955,44.887Z" transform="translate(-47.569 -38.055)"/><path class="a" d="M98.99,368H96.365a.365.365,0,1,0,0,.729H98.99a.365.365,0,0,0,0-.729Z" transform="translate(-91.332 -350.107)"/><path class="a" d="M101.365,253.8h.705v.705a.365.365,0,1,0,.729,0V253.8h.705a.365.365,0,0,0,0-.729H102.8v-.705a.365.365,0,1,0-.729,0v.705h-.705a.365.365,0,0,0,0,.729Z" transform="translate(-96.089 -239.747)"/><path class="a" d="M235.079,258.551a.365.365,0,0,0-.516,0l-.5.5-.5-.5a.365.365,0,0,0-.516.516l.5.5-.5.5a.365.365,0,0,0,.516.516l.5-.5.5.5a.365.365,0,0,0,.516-.516l-.5-.5.5-.5A.365.365,0,0,0,235.079,258.551Z" transform="translate(-221.617 -245.878)"/><path class="a" d="M232.011,353.529a.364.364,0,0,0,.258-.107l1.653-1.653a.365.365,0,1,0-.516-.516l-1.653,1.653a.365.365,0,0,0,.258.623Z" transform="translate(-220.383 -334.073)"/><g transform="translate(11.508 17.14)"><circle class="a" cx="0.5" cy="0.5" r="0.5" transform="translate(-0.062 0.307)"/><circle class="a" transform="translate(1.938 2.307)"/></g><path class="a" d="M260.532,72.112a.852.852,0,0,0,.851-.851v-1.41a.852.852,0,0,0-.851-.851h-.681a.852.852,0,0,0-.851.851v1.41a.852.852,0,0,0,.851.851Zm-.8-.851v-1.41a.122.122,0,0,1,.122-.122h.681a.122.122,0,0,1,.122.122v1.41a.122.122,0,0,1-.122.122h-.681A.122.122,0,0,1,259.729,71.261Z" transform="translate(-246.407 -65.645)"/></svg>