<svg xmlns="http://www.w3.org/2000/svg" width="18.97" height="18.956" viewBox="0 0 18.97 18.956"><defs><style>.a{fill:#fff;stroke:#203763;stroke-width:0.5px;}</style></defs><path class="a" d="M10.69,12.6a6.845,6.845,0,0,0-1.438-.768,3.67,3.67,0,0,0,1.194-2.421,5.427,5.427,0,0,1,6.881-.563.721.721,0,1,0,.825-1.183A6.853,6.853,0,0,0,16.714,6.9a3.677,3.677,0,1,0-4.95-.008q-.151.058-.3.123a6.847,6.847,0,0,0-1.27.729,3.676,3.676,0,1,0-5.9,4.075A6.933,6.933,0,0,0,.109,16.131a2.163,2.163,0,0,0,2.059,2.826H8.44a.721.721,0,0,0,0-1.442H2.168a.721.721,0,0,1-.687-.942A5.563,5.563,0,0,1,6.766,12.81a5.393,5.393,0,0,1,3.1.972.721.721,0,1,0,.825-1.183ZM14.243,1.943a2.235,2.235,0,1,1-2.235,2.235,2.237,2.237,0,0,1,2.235-2.235ZM6.782,6.876A2.235,2.235,0,1,1,4.547,9.111,2.237,2.237,0,0,1,6.782,6.876Zm11.679,8.656a.721.721,0,0,1-.721.721H15.757v1.983a.721.721,0,1,1-1.442,0V16.253H12.333a.721.721,0,0,1,0-1.442h1.983V12.829a.721.721,0,0,1,1.442,0v1.983H17.74A.721.721,0,0,1,18.461,15.532Zm0,0" transform="translate(0.258 -0.251)"/></svg>