<svg xmlns="http://www.w3.org/2000/svg" width="18.397" height="22.077" viewBox="0 0 18.397 22.077"><defs><style>.a{fill:#fff;}</style></defs><g transform="translate(-2)"><path class="a" d="M18.1,22.077H4.3a2.3,2.3,0,0,1-2.3-2.3V2.3A2.3,2.3,0,0,1,4.3,0H18.1a2.3,2.3,0,0,1,2.3,2.3V19.777A2.3,2.3,0,0,1,18.1,22.077ZM4.3.92A1.381,1.381,0,0,0,2.92,2.3V19.777a1.381,1.381,0,0,0,1.38,1.38H18.1a1.381,1.381,0,0,0,1.38-1.38V2.3A1.381,1.381,0,0,0,18.1.92Z" transform="translate(0)"/><path class="a" d="M18.3,11.92H16.46a.46.46,0,1,1,0-.92H18.3a.46.46,0,0,1,0,.92Z" transform="translate(-1.122 -0.882)"/><path class="a" d="M18.3,8.92H16.46a.46.46,0,1,1,0-.92H18.3a.46.46,0,0,1,0,.92Z" transform="translate(-1.122 -0.641)"/><path class="a" d="M18.3,14.92H16.46a.46.46,0,1,1,0-.92H18.3a.46.46,0,0,1,0,.92Z" transform="translate(-1.122 -1.122)"/><path class="a" d="M18.3,17.92H16.46a.46.46,0,1,1,0-.92H18.3a.46.46,0,0,1,0,.92Z" transform="translate(-1.122 -1.362)"/><path class="a" d="M17.418,20.92H5.46a.46.46,0,1,1,0-.92H17.418a.46.46,0,1,1,0,.92Z" transform="translate(-0.24 -1.603)"/><path class="a" d="M9.6,17.2a4.6,4.6,0,1,1,4.6-4.6A4.6,4.6,0,0,1,9.6,17.2Zm0-8.279A3.679,3.679,0,1,0,13.279,12.6,3.683,3.683,0,0,0,9.6,8.92Z" transform="translate(-0.24 -0.641)"/><path class="a" d="M6.778,15.986a.459.459,0,0,1-.326-.785l2.793-2.793V8.46a.46.46,0,0,1,.92,0V12.6a.463.463,0,0,1-.134.326L7.1,15.852A.462.462,0,0,1,6.778,15.986Z" transform="translate(-0.346 -0.641)"/></g></svg>