<svg xmlns="http://www.w3.org/2000/svg" width="12.565" height="17.111" viewBox="0 0 12.565 17.111"><defs><style>.a{fill:#0d93c9;stroke:#0d93c9;stroke-width:0.2px;}</style></defs><g transform="translate(19.468 26.436) rotate(-155)"><path class="a" d="M25.7,52.089H22.044a1.044,1.044,0,1,1,0-2.089H25.7a1.044,1.044,0,1,1,0,2.089Zm-3.655-1.567a.522.522,0,0,0,0,1.044H25.7a.522.522,0,1,0,0-1.044Z" transform="translate(-3.695 -35.468)"/><path class="a" d="M23.571,37.468H16.783A.769.769,0,0,1,16,36.685V33.03a.769.769,0,0,1,.783-.783h1.305V29.662l.992-.862L20.2,29.844l1.07-1.018.287.209.7.679v.862l-.574.366.574.392v.914h1.305a.769.769,0,0,1,.783.783v3.655A.769.769,0,0,1,23.571,37.468Zm-6.788-4.7a.247.247,0,0,0-.261.261v3.655a.247.247,0,0,0,.261.261h6.788a.247.247,0,0,0,.261-.261V33.03a.247.247,0,0,0-.261-.261H21.744V31.594l-.992-.653.992-.653v-.339l-.444-.418-1.1,1.044-1.123-1.044-.47.392v2.846Z" transform="translate(0 -19.803)"/><path class="a" d="M26.089,8.605,24.966,7.561,24,8.449V3.462L25.462,2h1.253l1.462,1.462v.757l-.574.392L28.177,5v.809l-.574.366.574.392v.809l-.679.444-.287-.261ZM24.966,6.83l1.123,1.044L27.211,6.83l.339.313.1-.078V6.83l-.992-.653.992-.653V5.29l-.992-.679.992-.653V3.671L26.506,2.522h-.835L24.522,3.671V7.248Z" transform="translate(-5.911)"/></g></svg>