<svg xmlns="http://www.w3.org/2000/svg" width="22.349" height="22.181" viewBox="0 0 22.349 22.181"><defs><style>.a{fill:#fff;}</style></defs><g transform="translate(0 -0.181)"><path class="a" d="M13.966,9.09l8.2,1.63a1.376,1.376,0,0,1,1.108,1.36v9.5a1.4,1.4,0,0,1-1.4,1.4H13.5a.461.461,0,0,0,.466-.466v-.466h7.915a.467.467,0,0,0,.466-.466v-9.5a.468.468,0,0,0-.363-.456L13.966,10.04Z" transform="translate(-0.929 -0.613)"/><path class="a" d="M19.328,14a.466.466,0,0,1,0,.931H17.466a.466.466,0,0,1,0-.931Z" transform="translate(-1.17 -0.951)"/><path class="a" d="M19.328,17a.466.466,0,0,1,0,.931H17.466a.466.466,0,0,1,0-.931Z" transform="translate(-1.17 -1.157)"/><path class="a" d="M19.328,20a.466.466,0,0,1,0,.931H17.466a.466.466,0,0,1,0-.931Z" transform="translate(-1.17 -1.364)"/><path class="a" d="M13.931,22.5a.466.466,0,1,1-.931,0V9.466a.5.5,0,0,1,.168-.363.489.489,0,0,1,.391-.093l.372.074V22.5Z" transform="translate(-0.894 -0.607)"/><path class="a" d="M12.759,23v.466a.461.461,0,0,0,.466.466H9.5a.461.461,0,0,0,.466-.466V23Z" transform="translate(-0.654 -1.57)"/><path class="a" d="M10.328,5a.466.466,0,1,1,0,.931H8.466a.466.466,0,1,1,0-.931Z" transform="translate(-0.55 -0.332)"/><path class="a" d="M10.794,8.466a.461.461,0,0,1-.466.466H8.466a.466.466,0,1,1,0-.931h1.862A.461.461,0,0,1,10.794,8.466Z" transform="translate(-0.55 -0.538)"/><path class="a" d="M10.328,11a.466.466,0,1,1,0,.931H8.466a.466.466,0,1,1,0-.931Z" transform="translate(-0.55 -0.744)"/><path class="a" d="M10.328,14a.466.466,0,1,1,0,.931H8.466a.466.466,0,0,1,0-.931Z" transform="translate(-0.55 -0.951)"/><path class="a" d="M5.794,14.466a.461.461,0,0,1-.466.466H3.466a.466.466,0,0,1,0-.931H5.328A.461.461,0,0,1,5.794,14.466Z" transform="translate(-0.206 -0.951)"/><path class="a" d="M5.328,5a.466.466,0,1,1,0,.931H3.466a.466.466,0,1,1,0-.931Z" transform="translate(-0.206 -0.332)"/><path class="a" d="M5.328,8a.466.466,0,1,1,0,.931H3.466a.466.466,0,1,1,0-.931Z" transform="translate(-0.206 -0.538)"/><path class="a" d="M5.328,11a.466.466,0,1,1,0,.931H3.466a.466.466,0,1,1,0-.931Z" transform="translate(-0.206 -0.744)"/><path class="a" d="M8.656,18.4a.467.467,0,0,0-.466-.466H5.4a.461.461,0,0,0-.466.466v4.19H4V18.4A1.4,1.4,0,0,1,5.4,17H8.19a1.4,1.4,0,0,1,1.4,1.4v4.19H8.656Z" transform="translate(-0.275 -1.157)"/><path class="a" d="M4.931,23H9.587v.466a.461.461,0,0,1-.466.466H4.466A.461.461,0,0,1,4,23.466V23Z" transform="translate(-0.275 -1.57)"/><path class="a" d="M1.63.2,11.863,1.754a1.392,1.392,0,0,1,1.173,1.378V8.477L12.664,8.4a.489.489,0,0,0-.391.093.5.5,0,0,0-.168.363V3.132a.471.471,0,0,0-.391-.466L1.481,1.121A.258.258,0,0,0,1.4,1.111a.439.439,0,0,0-.3.112.445.445,0,0,0-.168.354V20.964a.467.467,0,0,0,.466.466H3.725V21.9a.461.461,0,0,0,.466.466H1.4a1.4,1.4,0,0,1-1.4-1.4V1.577A1.371,1.371,0,0,1,.494.515,1.4,1.4,0,0,1,1.63.2Z" transform="translate(0)"/></g></svg>