<svg xmlns="http://www.w3.org/2000/svg" width="30.474" height="24.879" viewBox="0 0 30.474 24.879"><defs><style>.a{fill:#009ed6;}</style></defs><g transform="translate(1 -46.014)"><g transform="translate(-1 46.014)"><g transform="translate(0 0)"><path class="a" d="M264.042,247.866h8.124a.48.48,0,0,0,.508-.508v-4.57a.48.48,0,0,0-.508-.508h-8.124a.48.48,0,0,0-.508.508v4.57A.48.48,0,0,0,264.042,247.866Zm.508-4.57h7.108v3.554h-7.108Z" transform="translate(-247.794 -230.603)"/><path class="a" d="M33.642,209.162H37.7a.508.508,0,1,0,0-1.015H33.642a.508.508,0,1,0,0,1.015Z" transform="translate(-31.103 -198.5)"/><path class="a" d="M136.042,209.162H140.1a.508.508,0,1,0,0-1.015h-4.062a.508.508,0,1,0,0,1.015Z" transform="translate(-127.41 -198.5)"/><path class="a" d="M33.642,243.3h6.6a.508.508,0,0,0,0-1.015h-6.6a.508.508,0,1,0,0,1.015Z" transform="translate(-31.103 -230.603)"/><path class="a" d="M180.231,242.28h-1.523a.508.508,0,0,0,0,1.015h1.523a.508.508,0,0,0,0-1.015Z" transform="translate(-167.537 -230.602)"/><path class="a" d="M29.008,51.4a1.892,1.892,0,0,0-1.371-.762l-1.219-.148V48.045a2.037,2.037,0,0,0-2.031-2.031H1.031A2.037,2.037,0,0,0-1,48.045V64.293A2.039,2.039,0,0,0,.455,66.24,1.976,1.976,0,0,0,2.25,68.253l23.458,2.64h.2a2.033,2.033,0,0,0,2.031-1.726l1.523-16.3A1.974,1.974,0,0,0,29.008,51.4ZM.016,49.568H25.4v3.046H.016Zm1.015-2.539H24.387A1.018,1.018,0,0,1,25.4,48.045v.508H.016v-.508A1.018,1.018,0,0,1,1.031,47.029ZM.016,64.293V53.63H25.4V64.293a1.018,1.018,0,0,1-1.016,1.016H1.031A1.018,1.018,0,0,1,.016,64.293ZM28.449,52.665l-1.523,16.3a1.024,1.024,0,0,1-1.117.914L2.4,67.238a1.026,1.026,0,0,1-.914-.914h22.9a2.037,2.037,0,0,0,2.031-2.031V51.447l1.168.1a.868.868,0,0,1,.66.355A1.028,1.028,0,0,1,28.449,52.665Z" transform="translate(1 -46.014)"/></g></g></g></svg>