<svg xmlns="http://www.w3.org/2000/svg" width="30.4" height="38" viewBox="0 0 30.4 38"><defs><style>.a{fill:#38a956;}</style></defs><g transform="translate(0)"><path class="a" d="M86.615,16.185A.633.633,0,0,0,86.167,16H68.433A4.438,4.438,0,0,0,64,20.433V49.567A4.438,4.438,0,0,0,68.433,54H89.967A4.438,4.438,0,0,0,94.4,49.567V24.233a.633.633,0,0,0-.186-.448Zm.185,1.977L92.238,23.6H89.967A3.17,3.17,0,0,1,86.8,20.433Zm-18.367-.9h17.1v3.167a4.438,4.438,0,0,0,4.433,4.433h3.167V42.6H65.267V20.433A3.17,3.17,0,0,1,68.433,17.267ZM89.967,52.733H68.433a3.17,3.17,0,0,1-3.167-3.167v-5.7H93.133v5.7A3.17,3.17,0,0,1,89.967,52.733Z" transform="translate(-64 -16)"/><path class="a" d="M233.9,385.267h1.267a.633.633,0,1,0,0-1.267H233.9a1.9,1.9,0,1,0,0,3.8.633.633,0,0,1,0,1.267h-1.267a.633.633,0,1,0,0,1.267H233.9a1.9,1.9,0,0,0,0-3.8.633.633,0,0,1,0-1.267Z" transform="translate(-218.7 -354.867)"/><path class="a" d="M299.319,384.017a.633.633,0,0,0-.768.461l-.652,2.609-.652-2.609a.633.633,0,1,0-1.229.307l1.267,5.067a.633.633,0,0,0,1.229,0l1.267-5.067A.633.633,0,0,0,299.319,384.017Z" transform="translate(-277.632 -354.865)"/><path class="a" d="M170.533,385.267a.844.844,0,0,1,.363.084.633.633,0,1,0,.54-1.146,2.1,2.1,0,0,0-.9-.2c-1.4,0-2.533,1.421-2.533,3.167s1.136,3.167,2.533,3.167a2.1,2.1,0,0,0,.9-.2.633.633,0,0,0-.54-1.146.846.846,0,0,1-.363.084c-.687,0-1.267-.87-1.267-1.9S169.847,385.267,170.533,385.267Z" transform="translate(-159.767 -354.867)"/><path class="a" d="M152.633,138.133a.633.633,0,1,0,0,1.267h1.9v1.9a.633.633,0,1,0,1.267,0v-1.9h3.8v1.9a.633.633,0,1,0,1.267,0v-1.9h3.8v1.9a.633.633,0,0,0,1.267,0v-1.9h1.9a.633.633,0,1,0,0-1.267h-1.9V135.6h1.9a.633.633,0,1,0,0-1.267h-1.9V131.8h1.9a.633.633,0,1,0,0-1.267h-1.9v-1.9a.633.633,0,0,0-1.267,0v1.9h-3.8v-1.9a.633.633,0,1,0-1.267,0v1.9h-3.8v-1.9a.633.633,0,0,0-1.267,0v1.9h-1.9a.633.633,0,1,0,0,1.267h1.9v2.533h-1.9a.633.633,0,1,0,0,1.267h1.9v2.533Zm12.033,0h-3.8V135.6h3.8Zm0-6.333v2.533h-3.8V131.8Zm-8.867,0h3.8v2.533h-3.8Zm0,3.8h3.8v2.533h-3.8Z" transform="translate(-145.033 -119.133)"/></g></svg>