<svg xmlns="http://www.w3.org/2000/svg" width="17.014" height="21.267" viewBox="0 0 17.014 21.267"><defs><style>.a{fill:#3c9832;}</style></defs><path class="a" d="M76.657,16.1a.354.354,0,0,0-.251-.1H66.481A2.484,2.484,0,0,0,64,18.481v16.3a2.484,2.484,0,0,0,2.481,2.481H78.533a2.484,2.484,0,0,0,2.481-2.481V20.608a.354.354,0,0,0-.1-.251Zm.1,1.106L79.8,20.253H78.533a1.774,1.774,0,0,1-1.772-1.772Zm-10.279-.5h9.57v1.772a2.484,2.484,0,0,0,2.481,2.481H80.3v9.925h-15.6V18.481A1.774,1.774,0,0,1,66.481,16.709ZM78.533,36.558H66.481a1.774,1.774,0,0,1-1.772-1.772V31.6H80.3v3.19A1.774,1.774,0,0,1,78.533,36.558Z" transform="translate(-64 -16)"/><path class="a" d="M233.063,384.709h.709a.354.354,0,0,0,0-.709h-.709a1.063,1.063,0,1,0,0,2.127.354.354,0,0,1,0,.709h-.709a.354.354,0,1,0,0,.709h.709a1.063,1.063,0,0,0,0-2.127.354.354,0,1,1,0-.709Z" transform="translate(-224.557 -367.695)"/><path class="a" d="M297.856,384.009a.354.354,0,0,0-.43.258l-.365,1.46-.365-1.46a.354.354,0,1,0-.688.172l.709,2.836a.354.354,0,0,0,.688,0l.709-2.836A.354.354,0,0,0,297.856,384.009Z" transform="translate(-285.719 -367.693)"/><path class="a" d="M169.418,384.709a.471.471,0,0,1,.2.047.354.354,0,0,0,.3-.641,1.178,1.178,0,0,0-.506-.115,1.817,1.817,0,0,0,0,3.544,1.176,1.176,0,0,0,.506-.115.354.354,0,1,0-.3-.641.473.473,0,0,1-.2.047c-.384,0-.709-.487-.709-1.063S169.034,384.709,169.418,384.709Z" transform="translate(-163.392 -367.695)"/><path class="a" d="M152.354,133.671a.354.354,0,1,0,0,.709h1.063v1.063a.354.354,0,1,0,.709,0V134.38h2.127v1.063a.354.354,0,1,0,.709,0V134.38h2.127v1.063a.354.354,0,1,0,.709,0V134.38h1.063a.354.354,0,1,0,0-.709H159.8v-1.418h1.063a.354.354,0,1,0,0-.709H159.8v-1.418h1.063a.354.354,0,1,0,0-.709H159.8v-1.063a.354.354,0,0,0-.709,0v1.063h-2.127v-1.063a.354.354,0,0,0-.709,0v1.063h-2.127v-1.063a.354.354,0,0,0-.709,0v1.063h-1.063a.354.354,0,0,0,0,.709h1.063v1.418h-1.063a.354.354,0,1,0,0,.709h1.063v1.418Zm6.735,0h-2.127v-1.418h2.127Zm0-3.545v1.418h-2.127v-1.418Zm-4.962,0h2.127v1.418h-2.127Zm0,2.127h2.127v1.418h-2.127Z" transform="translate(-148.101 -123.038)"/></svg>