<svg xmlns="http://www.w3.org/2000/svg" width="20.198" height="20.097" viewBox="0 0 20.198 20.097"><defs><style>.a{fill:#009ed6;}</style></defs><g transform="translate(0 -0.261)"><path class="a" d="M18.642,49.827a.5.5,0,0,0-.5.5V54.8a1.511,1.511,0,0,1-1.509,1.509H2.515A1.511,1.511,0,0,1,1.006,54.8V41.687a1.511,1.511,0,0,1,1.509-1.509H6.982a.5.5,0,0,0,0-1.006H2.515A2.518,2.518,0,0,0,0,41.687V54.8a2.518,2.518,0,0,0,2.515,2.515H16.63A2.518,2.518,0,0,0,19.145,54.8V50.33A.5.5,0,0,0,18.642,49.827Zm0,0" transform="translate(0 -36.954)"/><path class="a" d="M121.694.924a2.264,2.264,0,0,0-3.2,0L109.518,9.9a.5.5,0,0,0-.129.221l-1.18,4.261a.5.5,0,0,0,.619.619l4.261-1.18a.5.5,0,0,0,.221-.129l8.974-8.975a2.266,2.266,0,0,0,0-3.2Zm-11.08,9.3,7.345-7.345,2.369,2.369-7.345,7.345Zm-.473.949,1.893,1.893-2.618.725ZM121.573,4l-.534.534L118.67,2.169l.534-.534a1.258,1.258,0,0,1,1.778,0l.59.59A1.259,1.259,0,0,1,121.573,4Zm0,0" transform="translate(-102.748)"/></g></svg>