<svg xmlns="http://www.w3.org/2000/svg" width="14.909" height="14.909" viewBox="0 0 14.909 14.909"><defs><style>.a{fill:#fff;}</style></defs><g transform="translate(0.001 -0.003)"><path class="a" d="M14.906,3.688a.438.438,0,0,0-.1-.234c-.022-.027.2.2-3.32-3.323A.44.44,0,0,0,11.181,0H1.309A1.312,1.312,0,0,0,0,1.313V13.6a1.312,1.312,0,0,0,1.31,1.31H13.6a1.312,1.312,0,0,0,1.31-1.31c0-10.6,0-9.881,0-9.914ZM10.045.877V3.73a.437.437,0,0,1-.437.437H9.055V.877Zm-1.864,0v3.29H4.134A.437.437,0,0,1,3.7,3.73V.877ZM10.045,9.35H3.7V8.8a.437.437,0,0,1,.437-.437H9.608a.437.437,0,0,1,.437.437ZM3.7,14.039V10.224h6.348v3.815ZM14.035,13.6a.437.437,0,0,1-.437.437H10.919V8.8a1.312,1.312,0,0,0-1.31-1.31H4.134A1.312,1.312,0,0,0,2.824,8.8v5.241H1.309A.437.437,0,0,1,.873,13.6V1.313A.437.437,0,0,1,1.309.877H2.824V3.73a1.312,1.312,0,0,0,1.31,1.31H9.608a1.312,1.312,0,0,0,1.31-1.31V.877H11l3.035,3.035Z" transform="translate(0 0)"/></g></svg>