<svg xmlns="http://www.w3.org/2000/svg" width="62.02" height="133.845" viewBox="0 0 62.02 133.845"><defs><style>.a{fill:#cbdbe8;}.a,.b{stroke:#dbe4eb;stroke-width:1.5px;}.b{fill:#fff;}.c,.d,.e{fill:#a4b8c8;}.c{font-size:8px;}.c,.e{font-family:OpenSans-Bold, Open Sans;font-weight:700;}.d{font-size:2px;font-family:OpenSans, Open Sans;}.e{font-size:6px;}.f{stroke:none;}.g{fill:none;}</style></defs><g transform="translate(-947.19 -556.33)"><path class="a" d="M29.65,131.461l-7.707-4.409,2.016-62.518-6.048-2.773V51.174H14.384V43.611s-4.032-3.277-3.528-3.025C-7.287,29.494,2.792,23.948,2.792,23.948L5.06,19.915H9.092l1.764-4.285H16.9L25.219,0H35.3l8.316,15.629h6.048l1.764,4.285h4.032l2.268,4.033s10.08,5.546-8.064,16.638c.5-.252-3.528,3.025-3.528,3.025v7.563H42.607V61.762l-6.048,2.773,2.016,62.518-8.925,4.79Z" transform="translate(947.941 557.08)"/><g class="b" transform="translate(971 564)"><ellipse class="f" cx="7" cy="5" rx="7" ry="5"/><ellipse class="g" cx="7" cy="5" rx="6.25" ry="4.25"/></g><text class="c" transform="translate(963 587)"><tspan x="0" y="0">PRIMUS</tspan></text><text class="d" transform="translate(978 591)"><tspan x="-4.673" y="0">Restricted</tspan><tspan x="-7.971" y="3">Do Not Duplicate</tspan></text><text class="e" transform="translate(969.707 603.779)"><tspan x="0" y="0">00121</tspan></text></g></svg>