<svg xmlns="http://www.w3.org/2000/svg" width="53.11" height="134.016" viewBox="0 0 53.11 134.016"><defs><style>.a{fill:#cbdbe8;}.a,.b{stroke:#dbe4eb;stroke-width:1.5px;}.b{fill:#fff;}.c{fill:#a4b8c8;font-size:5px;font-family:OpenSans-Bold, Open Sans;font-weight:700;}.d{stroke:none;}.e{fill:none;}</style></defs><g transform="translate(-590.728 -552.58)"><path class="a" d="M25.932,132.285c.007,0,.008,0,0,.005h0S25.933,132.289,25.932,132.285Zm-.359.005c-.006,0-.005,0,0-.005s0,.005,0,.005Zm.358-.019q0,.009,0,.014a1.548,1.548,0,0,0-.357,0s0-.008,0-.014c-1.058-.015-4.074.019-4.074.019a4.088,4.088,0,0,0-1.156-3.469c.08-.069,1.837-64.727,1.837-64.727s1.484-2.294-7.219-16.058C14.771,48.231,1.076,15.9.5,13.2.691,13.4-2.038,8.3,3.562,5.87,3.562,5.677,16.362,0,25.748,0h.011c9.386,0,22.187,5.677,22.187,5.87,5.6,2.429,2.871,7.526,3.064,7.333-.578,2.7-14.273,35.027-14.466,34.835C27.84,61.8,29.324,64.1,29.324,64.1s1.757,64.658,1.837,64.727A4.088,4.088,0,0,0,30,132.291S26.989,132.257,25.93,132.272Zm5.231-3.449c.111-.112.121-.071.093-.03a.086.086,0,0,1-.063.042A.045.045,0,0,1,31.161,128.822Zm-10.909-.03c-.028-.041-.018-.081.093.03a.045.045,0,0,1-.03.012A.086.086,0,0,1,20.252,128.792Z" transform="translate(591.529 553.33)"/><g class="b" transform="translate(606.426 560.715)"><ellipse class="d" cx="11.554" cy="4.333" rx="11.554" ry="4.333"/><ellipse class="e" cx="11.554" cy="4.333" rx="10.804" ry="3.583"/></g><g class="b" transform="translate(607.388 587.675)"><circle class="d" cx="3.851" cy="3.851" r="3.851"/><circle class="e" cx="3.851" cy="3.851" r="3.101"/></g><text class="c" transform="translate(606.356 576.92)"><tspan x="0" y="0">ABLOY</tspan></text><text class="c" transform="translate(620.898 604.361) rotate(-65)"><tspan x="0" y="0">00121</tspan></text></g></svg>