<svg xmlns="http://www.w3.org/2000/svg" width="46.588" height="132.084" viewBox="0 0 46.588 132.084"><defs><style>.a{fill:#cbdbe8;}.a,.b{stroke:#dbe4eb;stroke-width:1.5px;}.b{fill:#fff;}.c,.d,.e,.f{fill:#a4b8c8;}.c{font-size:5px;}.c,.d,.f{font-family:OpenSans-Bold, Open Sans;font-weight:700;}.d{font-size:7px;}.e{font-size:3px;font-family:OpenSans, Open Sans;}.f{font-size:6px;}.g{stroke:none;}.h{fill:none;}</style></defs><g transform="translate(-770.251 -560.25)"><g transform="translate(-24.986)"><path class="a" d="M21.94,129.765l-.116.069v-.157l-4.367-3.3-4.6-1.342V56L5.566,55.04S-.187,51.78,0,43.15c0-.192,0-37.2,0-37.2S2.114.384,7.1,0H37.987c4.986.384,7.1,5.945,7.1,5.945s0,37.013,0,37.2c.192,8.63-5.562,11.89-5.562,11.89L32.234,56v69.04l-4.6,1.342-5.6,3.328v.124ZM37.987,0h0ZM7.1,0Z" transform="translate(795.987 561)"/><g class="b" transform="translate(818 566)"><ellipse class="g" cx="7.5" cy="4.5" rx="7.5" ry="4.5"/><ellipse class="h" cx="7.5" cy="4.5" rx="6.75" ry="3.75"/></g><text class="c" transform="translate(809 604)"><tspan x="0" y="0">Medeco</tspan></text><text class="d" transform="translate(802 596)"><tspan x="0" y="0">Key Mark</tspan></text><text class="d" transform="translate(801 572)"><tspan x="0" y="0">X4</tspan></text><text class="e" transform="translate(818 581)"><tspan x="-7.01" y="0">Restricted</tspan><tspan x="-11.957" y="4">Do Not Duplicate</tspan></text><text class="f" transform="translate(820.886 636.711) rotate(-90)"><tspan x="0" y="0">00121</tspan></text></g></g></svg>