<svg xmlns="http://www.w3.org/2000/svg" width="60.68" height="131.541" viewBox="0 0 60.68 131.541"><defs><style>.a{fill:#cbdbe8;}.a,.b{stroke:#dbe4eb;stroke-width:1.5px;}.b{fill:#fff;}.c,.d,.e{fill:#a4b8c8;}.c{font-size:6px;}.c,.e{font-family:OpenSans-Bold, Open Sans;font-weight:700;}.d{font-size:3px;font-family:OpenSans, Open Sans;}.e{font-size:5px;}.f{stroke:none;}.g{fill:none;}</style></defs><g transform="translate(0.371 0.75)"><path class="a" d="M29.469,130.014l-.178.005v-.012c-1.325-.051-5.915-.3-6.165-1.342-.292-1.215-.925-2.247-.925-2.776-.054-.029,0-61.618,0-61.618A9.114,9.114,0,0,1,23.32,61.73c-.039-.078,0-2.933,0-2.933s-4.653,0-4.693-1.8c0-.039,0-8.02,0-8.02S5.256,47.6.015,43.823c-.086-.172,0-27.835,5.67-41.238-.172-.172.467-.959,2.149-1,.039.039,8.72,1.408,14.938-.821A61.125,61.125,0,0,1,29.469,0a61.127,61.127,0,0,1,6.7.762c6.218,2.229,14.9.86,14.938.821,1.681.039,2.321.826,2.149,1,5.67,13.4,5.756,41.066,5.67,41.238C53.682,47.6,40.31,48.978,40.31,48.978s0,7.981,0,8.02c-.039,1.8-4.693,1.8-4.693,1.8s.039,2.855,0,2.933a9.114,9.114,0,0,1,1.119,2.542s.054,61.589,0,61.618c0,.529-.633,1.561-.925,2.776-.25,1.039-4.84,1.291-6.165,1.342v.012Z" transform="translate(0.5 0)"/><g class="b" transform="translate(16.513 7.103)"><ellipse class="f" cx="12.8" cy="4.695" rx="12.8" ry="4.695"/><ellipse class="g" cx="12.8" cy="4.695" rx="12.05" ry="3.945"/></g><g class="b" transform="translate(4.877 37.839)"><ellipse class="f" cx="5.818" cy="2.648" rx="5.818" ry="2.648"/><ellipse class="g" cx="5.818" cy="2.648" rx="5.068" ry="1.898"/></g><text class="c" transform="translate(9 27.921)"><tspan x="0" y="0">MUL-T-LOCKS</tspan></text><text class="d" transform="translate(17.255 33.92)"><tspan x="0" y="0">Do Not Duplicate</tspan></text><text class="e" transform="translate(22.254 54.277)"><tspan x="0" y="0">00120</tspan></text></g></svg>