<svg xmlns="http://www.w3.org/2000/svg" width="61.918" height="132.061" viewBox="0 0 61.918 132.061"><defs><style>.a{fill:#cbdbe8;}.a,.b{stroke:#dbe4eb;stroke-width:1.5px;}.b{fill:#fff;}.c,.d{fill:#a4b8c8;font-family:OpenSans-Bold, Open Sans;font-weight:700;}.c{font-size:20px;}.d{font-size:7px;}.e{stroke:none;}.f{fill:none;}</style></defs><g transform="translate(-1133.75 -559.523)"><path class="a" d="M30.133,130.561h-1.3l-7.571-7.577s.326-61.8,0-62.366c.291-9.617-4.077-8.16-4.077-8.16H8.154L0,43.423V8.743S6.05,2.105,8.154,0H52.264c2.1,2.105,8.153,8.743,8.153,8.743v34.68l-8.153,9.034H43.237S38.869,51,39.16,60.617c-.326.564,0,62.366,0,62.366l-7.571,7.577Z" transform="translate(1134.5 560.273)"/><g class="b" transform="translate(1159 567)"><ellipse class="e" cx="5.5" cy="4.5" rx="5.5" ry="4.5"/><ellipse class="f" cx="5.5" cy="4.5" rx="4.75" ry="3.75"/></g><text class="c" transform="translate(1153 596)"><tspan x="0" y="0">ZC</tspan></text><text class="d" transform="translate(1155 608)"><tspan x="0" y="0">00121</tspan></text></g></svg>