<svg xmlns="http://www.w3.org/2000/svg" width="21.373" height="26" viewBox="0 0 21.373 26"><defs><style>.a{fill:#fff;}</style></defs><g transform="translate(-45.558 0)"><path class="a" d="M60.183,15.216v4.149a.382.382,0,1,0,.763,0V14.94a.382.382,0,0,0-.273-.366,4.308,4.308,0,0,1-2.189-1.52,4.235,4.235,0,0,1-.864-2.577A4.277,4.277,0,0,1,63.174,6.4a4.488,4.488,0,0,1-.533,1.237,1.693,1.693,0,1,0,.6.477,5.251,5.251,0,0,0,.642-1.418A4.28,4.28,0,0,1,65.2,7.768a.382.382,0,0,0,.59-.484A5.039,5.039,0,0,0,64.042,5.92a5.257,5.257,0,1,0-9.953,1.615,5.053,5.053,0,0,0-.189,5.34l-3.5,3.5a.382.382,0,0,0,.54.54L54.653,13.2a.382.382,0,0,0,.048-.481,4.274,4.274,0,0,1,4.545-6.524,5.077,5.077,0,0,0-1.312,1.174,3,3,0,0,0-.205,5.94c.048.07.1.139.148.207A5.064,5.064,0,0,0,58.96,14.57a4.274,4.274,0,0,1-3.064-.655.382.382,0,0,0-.481.048l-3.5,3.5a.382.382,0,0,0,0,.54l.827.827a.539.539,0,1,1-.762.762l-.827-.827a.382.382,0,0,0-.54,0l-.99.99a.384.384,0,0,0,0,.54l.827.827a.539.539,0,1,1-.762.762l-.827-.827a.382.382,0,0,0-.54,0l-1.083,1.083a.539.539,0,1,1-.762-.762L49.858,18a.382.382,0,0,0-.54-.54l-3.379,3.379a1.3,1.3,0,0,0,1.841,1.842l.813-.813.557.557a1.3,1.3,0,0,0,1.841-1.842l-.557-.557.45-.45.557.557a1.3,1.3,0,1,0,1.841-1.841l-.557-.557,3.014-3.014a5.045,5.045,0,0,0,4.177.395c.087.038.176.073.265.106Zm1.739-6.979a.922.922,0,0,1,.24.033A4.487,4.487,0,0,1,61,9.192c0-.01,0-.02,0-.03A.926.926,0,0,1,61.922,8.237Zm.925.925a.924.924,0,0,1-1.51.715,5.25,5.25,0,0,0,1.415-1.12A.919.919,0,0,1,62.846,9.162ZM54.7,6.792c-.024.024-.046.048-.07.073a4.494,4.494,0,1,1,8.691-1.608c0,.129-.006.257-.017.384a5.048,5.048,0,0,0-3.065.079A5.055,5.055,0,0,0,54.7,6.792Zm2.649,1.516a5,5,0,0,0-.366,1.048,4.472,4.472,0,0,1-.55-.295,2.233,2.233,0,0,1,.916-.753Zm-.671,3.63A2.241,2.241,0,0,1,56.1,9.754a5.224,5.224,0,0,0,.764.382c-.008.113-.012.227-.012.342a5.015,5.015,0,0,0,.352,1.855A2.238,2.238,0,0,1,56.677,11.938Z" transform="translate(0 0)"/><path class="a" d="M339.984,166.989a.382.382,0,0,0-.715.267,4.279,4.279,0,0,1-2.678,5.559.382.382,0,0,0-.263.363V175.3l-1.081.838a.384.384,0,0,0,0,.6l.84.651-.84.651a.384.384,0,0,0,0,.6l.84.651-.84.651a.384.384,0,0,0,0,.6l1.081.838v.916l-1.05,1.04-.961-1.031v-3.147a.382.382,0,1,0-.763,0v3.3a.382.382,0,0,0,.1.26l1.332,1.429a.384.384,0,0,0,.548.011l1.443-1.429a.382.382,0,0,0,.113-.271V181.2a.382.382,0,0,0-.148-.3l-.84-.651.84-.651a.384.384,0,0,0,0-.6l-.84-.651.84-.651a.384.384,0,0,0,0-.6l-.84-.651.84-.651a.381.381,0,0,0,.148-.3v-2.037a5.042,5.042,0,0,0,2.893-6.458Z" transform="translate(-273.37 -158.274)"/></g></svg>