<svg xmlns="http://www.w3.org/2000/svg" width="24" height="24" viewBox="0 0 24 24"><defs><style>.a{fill:#fff;}</style></defs><path class="a" d="M13.5,21h-4a.5.5,0,0,1,0-1h4A1.5,1.5,0,0,0,15,18.5v-5a.5.5,0,0,1,1,0v5A2.5,2.5,0,0,1,13.5,21Z"/><path class="a" d="M23.5,11h-10a.5.5,0,0,1,0-1h10a.5.5,0,0,1,0,1Z"/><path class="a" d="M8,24a1.905,1.905,0,0,1-.638-.109l-5.99-2A2,2,0,0,1,0,20V2A2,2,0,0,1,2,0a1.87,1.87,0,0,1,.639.11l5.989,2A2,2,0,0,1,10,4V22A2,2,0,0,1,8,24ZM2,1A1,1,0,0,0,1,2V20a1,1,0,0,0,.688.946l6,2A1,1,0,0,0,9,22V4a1,1,0,0,0-.688-.945l-6-2A.921.921,0,0,0,2,1Z"/><path class="a" d="M15.5,8a.5.5,0,0,1-.5-.5v-5A1.5,1.5,0,0,0,13.5,1H2A.5.5,0,0,1,2,0H13.5A2.5,2.5,0,0,1,16,2.5v5A.5.5,0,0,1,15.5,8Z"/><path class="a" d="M19.5,15a.5.5,0,0,1-.354-.853L22.792,10.5,19.146,6.855a.5.5,0,1,1,.707-.707l4,4a.5.5,0,0,1,0,.707l-4,4A.5.5,0,0,1,19.5,15Z"/></svg>