<svg xmlns="http://www.w3.org/2000/svg" width="30.259" height="39" viewBox="0 0 30.259 39"><defs><style>.a{fill:#e95757;}</style></defs><path class="a" d="M36.389,8.195l-.518-.518L29.082.888,28.564.37A1.272,1.272,0,0,0,27.671,0H8.156A1.743,1.743,0,0,0,6.5,1.967V37.655a1.541,1.541,0,0,0,1.236,1.284c.034.009.066.022.1.028A1.639,1.639,0,0,0,8.156,39H35.1a1.638,1.638,0,0,0,.319-.032c.035-.007.067-.02.1-.028a1.541,1.541,0,0,0,1.236-1.284V9.4A1.55,1.55,0,0,0,36.389,8.195Zm-2.027-.126H28.69V2.4ZM8.156,37.655a.388.388,0,0,1-.133-.033.308.308,0,0,1-.178-.278V27.569H35.414v9.775a.309.309,0,0,1-.178.278.388.388,0,0,1-.133.033ZM7.845,26.224V1.967c0-.146.022-.623.311-.623H27.384a1.035,1.035,0,0,0-.039.263V9.414h7.806a1.03,1.03,0,0,0,.262-.039c0,.01,0,.014,0,.024V26.224Z" transform="translate(-6.5)"/><path class="a" d="M20.307,44.475a2.312,2.312,0,0,0-.758-.414,2.735,2.735,0,0,0-.855-.138H16.745V50.7h1.1V48.254h.818a2.9,2.9,0,0,0,.974-.156,2.2,2.2,0,0,0,.754-.441,1.959,1.959,0,0,0,.487-.7,2.4,2.4,0,0,0,.175-.933,1.85,1.85,0,0,0-.207-.878A2.162,2.162,0,0,0,20.307,44.475Zm-.418,2.238a1.109,1.109,0,0,1-.266.436,1.008,1.008,0,0,1-.363.225,1.216,1.216,0,0,1-.4.069H17.848V44.76h.827a1.488,1.488,0,0,1,.68.133,1.114,1.114,0,0,1,.4.331,1.1,1.1,0,0,1,.188.414,1.882,1.882,0,0,1,.046.381A2.069,2.069,0,0,1,19.889,46.714Z" transform="translate(-9.856 -14.389)"/><path class="a" d="M29.7,44.916a3.114,3.114,0,0,0-1.076-.721,3.882,3.882,0,0,0-1.5-.271H25.084V50.7h2.565a3.658,3.658,0,0,0,.4-.032,2.714,2.714,0,0,0,.588-.147,3.083,3.083,0,0,0,.666-.345,2.338,2.338,0,0,0,.621-.63,3.554,3.554,0,0,0,.455-.993,4.978,4.978,0,0,0,.18-1.43,3.4,3.4,0,0,0-.211-1.181A2.983,2.983,0,0,0,29.7,44.916Zm-.8,4.256a1.826,1.826,0,0,1-1.618.717H26.187V44.76h.643a3.385,3.385,0,0,1,1.287.207,2.062,2.062,0,0,1,.786.543,1.789,1.789,0,0,1,.391.749,3.519,3.519,0,0,1,.1.836A3.638,3.638,0,0,1,28.9,49.173Z" transform="translate(-12.588 -14.389)"/><path class="a" d="M35.6,50.7H36.72V47.647h2.832v-.754H36.72V44.76h3.116v-.836H35.6Z" transform="translate(-16.032 -14.389)"/><path class="a" d="M31.873,18.029a13.015,13.015,0,0,0-2.258.241,21.486,21.486,0,0,1-3.421-5.085c.9-3.785.449-4.321.251-4.574-.211-.269-.509-.705-.848-.705a3.316,3.316,0,0,0-.683.116,1.292,1.292,0,0,0-.763.817c-.475,1.111.177,3.006.848,4.467a45.137,45.137,0,0,1-2.547,7.228c-2.548,1.167-3.9,2.314-4.024,3.408a1.611,1.611,0,0,0,.75,1.508,1.079,1.079,0,0,0,.65.219h0c.588,0,1.183-.451,1.871-1.417a19.079,19.079,0,0,0,1.6-2.858,32.218,32.218,0,0,1,5.936-1.9,4.472,4.472,0,0,0,2.832,1.536,1.785,1.785,0,0,0,1.493-.8,1.36,1.36,0,0,0,.262-1.452C33.564,18.275,32.926,18.029,31.873,18.029Zm-12.031,6.5c-.315-.241-.3-.4-.29-.465.042-.374.627-1.038,2.064-1.845C20.527,24.235,19.942,24.5,19.842,24.533ZM25.356,9.12c.029-.009.7.74.065,2.162A1.613,1.613,0,0,1,25.356,9.12ZM23.966,19.9a47.937,47.937,0,0,0,1.8-5.086,23.017,23.017,0,0,0,2.57,3.728A33.494,33.494,0,0,0,23.966,19.9Zm8.675-.322a1.013,1.013,0,0,1-.814.3c-.358,0-.492-.213-1.04-.635A9.679,9.679,0,0,1,32,19.164c.6,0,.707.088.79.132A1.044,1.044,0,0,1,32.641,19.574Z" transform="translate(-10.404 -2.59)"/></svg>