<svg xmlns="http://www.w3.org/2000/svg" width="6.094" height="13.681" viewBox="0 0 6.094 13.681"><defs><style>.a{fill:#ff6b6b;}</style></defs><g transform="translate(-14.047 -1.655)"><path class="a" d="M16.858,1.655a5.154,5.154,0,0,0-2.811.786l.472,1.238A3.494,3.494,0,0,1,16.5,3.07c1.239.02,1.868.688,1.868,1.691A4.316,4.316,0,0,1,17,7.454a4.512,4.512,0,0,0-1.218,3.4l.039.511H17.35l-.02-.511a3.886,3.886,0,0,1,1.121-2.889c.944-1.121,1.69-2.084,1.69-3.421C20.141,3.051,19.119,1.655,16.858,1.655Z" transform="translate(0 0)"/><path class="a" d="M19.594,38.318a1.23,1.23,0,0,0-.02,2.457,1.23,1.23,0,0,0,.02-2.457Z" transform="translate(-3.03 -25.439)"/></g></svg>