<svg xmlns="http://www.w3.org/2000/svg" width="21.635" height="23.192" viewBox="0 0 21.635 23.192"><defs><style>.a{fill:#fff;}</style></defs><g transform="translate(-17.183)"><path class="a" d="M38.478,272.532a.34.34,0,0,0-.34.34v9.2a.628.628,0,0,1-.627.627H29.494a.628.628,0,0,1-.627-.627v-.9a.34.34,0,0,0-.681,0v.9a1.3,1.3,0,0,0,.16.627H17.977a.114.114,0,0,1-.113-.113v-8.212a.34.34,0,0,0-.681,0v8.212a.8.8,0,0,0,.794.794H37.51a1.309,1.309,0,0,0,1.308-1.308v-9.2A.34.34,0,0,0,38.478,272.532Z" transform="translate(0 -260.187)"/><path class="a" d="M37.511,7.31h-3.29V4.558a.343.343,0,0,0-.1-.241L29.9.1a.343.343,0,0,0-.241-.1H17.978a.8.8,0,0,0-.794.794v12.03a.34.34,0,1,0,.681,0V.794a.114.114,0,0,1,.113-.113H29.322v2.97A1.25,1.25,0,0,0,30.57,4.9h2.97V7.31H29.5a1.309,1.309,0,0,0-1.308,1.308v.053H22.793a.34.34,0,1,0,0,.681h5.394v2.312H22.793a.34.34,0,1,0,0,.681h5.394v2.312H22.793a.34.34,0,1,0,0,.681h5.394V17.65H22.793a.34.34,0,1,0,0,.681h5.394v1.287a.34.34,0,0,0,.681,0v-11a.628.628,0,0,1,.627-.627h8.016a.628.628,0,0,1,.627.627v2.706a.34.34,0,0,0,.681,0V8.618A1.309,1.309,0,0,0,37.511,7.31ZM30,3.651V1.162l3.056,3.056H30.57A.568.568,0,0,1,30,3.651Z" transform="translate(-0.001 0)"/><path class="a" d="M305.434,196.823a.8.8,0,0,0-.794-.794h-5.652a.8.8,0,0,0-.794.794v1.922a.8.8,0,0,0,.794.794h5.652a.8.8,0,0,0,.794-.794Zm-.681,1.922a.114.114,0,0,1-.113.113h-5.652a.114.114,0,0,1-.113-.113v-1.922a.114.114,0,0,1,.113-.113h5.652a.114.114,0,0,1,.113.113Z" transform="translate(-268.282 -187.15)"/><path class="a" d="M298.194,305.562a.761.761,0,0,0,.76.76h.648a.761.761,0,0,0,.76-.76v-.648a.761.761,0,0,0-.76-.76h-.648a.761.761,0,0,0-.76.76Zm.681-.648a.079.079,0,0,1,.079-.079h.648a.079.079,0,0,1,.079.079v.648a.079.079,0,0,1-.079.079h-.648a.079.079,0,0,1-.079-.079Z" transform="translate(-268.282 -290.377)"/><path class="a" d="M356.35,304.915a.761.761,0,0,0-.76-.76h-.648a.761.761,0,0,0-.76.76v.648a.761.761,0,0,0,.76.76h.648a.761.761,0,0,0,.76-.76Zm-.681.648a.079.079,0,0,1-.079.079h-.648a.079.079,0,0,1-.079-.079v-.648a.079.079,0,0,1,.079-.079h.648a.079.079,0,0,1,.079.079Z" transform="translate(-321.734 -290.378)"/><path class="a" d="M412.337,304.915a.761.761,0,0,0-.76-.76h-.648a.761.761,0,0,0-.76.76v.648a.761.761,0,0,0,.76.76h.648a.761.761,0,0,0,.76-.76Zm-.681.648a.079.079,0,0,1-.079.079h-.648a.079.079,0,0,1-.079-.079v-.648a.079.079,0,0,1,.079-.079h.648a.079.079,0,0,1,.079.079Z" transform="translate(-375.185 -290.378)"/><path class="a" d="M298.194,366.833a.761.761,0,0,0,.76.76h.648a.761.761,0,0,0,.76-.76v-.648a.761.761,0,0,0-.76-.76h-.648a.761.761,0,0,0-.76.76Zm.681-.648a.079.079,0,0,1,.079-.079h.648a.079.079,0,0,1,.079.079v.648a.079.079,0,0,1-.079.079h-.648a.079.079,0,0,1-.079-.079Z" transform="translate(-268.282 -348.873)"/><path class="a" d="M356.35,366.185a.761.761,0,0,0-.76-.76h-.648a.761.761,0,0,0-.76.76v.648a.761.761,0,0,0,.76.76h.648a.761.761,0,0,0,.76-.76Zm-.681.648a.079.079,0,0,1-.079.079h-.648a.079.079,0,0,1-.079-.079v-.648a.079.079,0,0,1,.079-.079h.648a.079.079,0,0,1,.079.079Z" transform="translate(-321.734 -348.873)"/><path class="a" d="M298.194,428.1a.761.761,0,0,0,.76.76h.648a.761.761,0,0,0,.76-.76v-.648a.761.761,0,0,0-.76-.76h-.648a.761.761,0,0,0-.76.76Zm.681-.648a.079.079,0,0,1,.079-.079h.648a.079.079,0,0,1,.079.079v.648a.079.079,0,0,1-.079.079h-.648a.079.079,0,0,1-.079-.079Z" transform="translate(-268.282 -407.367)"/><path class="a" d="M355.59,426.7h-.648a.761.761,0,0,0-.76.76v.648a.761.761,0,0,0,.76.76h.648a.761.761,0,0,0,.76-.76v-.648A.761.761,0,0,0,355.59,426.7Zm.079,1.408a.079.079,0,0,1-.079.079h-.648a.079.079,0,0,1-.079-.079v-.648a.079.079,0,0,1,.079-.079h.648a.079.079,0,0,1,.079.079Z" transform="translate(-321.734 -407.368)"/><path class="a" d="M411.513,365.425h-.52a.825.825,0,0,0-.824.824v3.295a.825.825,0,0,0,.824.824h.52a.825.825,0,0,0,.824-.824v-3.295A.825.825,0,0,0,411.513,365.425Zm.144,4.119a.144.144,0,0,1-.144.143h-.52a.144.144,0,0,1-.143-.143v-3.295a.144.144,0,0,1,.143-.143h.52a.144.144,0,0,1,.144.143Z" transform="translate(-375.185 -348.873)"/><path class="a" d="M70.033,126.036h1.359a.34.34,0,1,0,0-.681H70.033a.34.34,0,0,0,0,.681Z" transform="translate(-50.132 -119.677)"/><path class="a" d="M133.847,126.036H140.4a.34.34,0,1,0,0-.681h-6.551a.34.34,0,0,0,0,.681Z" transform="translate(-111.055 -119.677)"/><path class="a" d="M70.033,192.109h1.359a.34.34,0,1,0,0-.681H70.033a.34.34,0,0,0,0,.681Z" transform="translate(-50.132 -182.757)"/><path class="a" d="M70.033,258.183h1.359a.34.34,0,0,0,0-.681H70.033a.34.34,0,0,0,0,.681Z" transform="translate(-50.132 -245.838)"/><path class="a" d="M70.033,324.257h1.359a.34.34,0,0,0,0-.681H70.033a.34.34,0,0,0,0,.681Z" transform="translate(-50.132 -308.919)"/><path class="a" d="M70.033,390.331h1.359a.34.34,0,1,0,0-.681H70.033a.34.34,0,1,0,0,.681Z" transform="translate(-50.132 -372)"/></g></svg>