<svg xmlns="http://www.w3.org/2000/svg" width="41.302" height="40.682" viewBox="0 0 41.302 40.682"><defs><style>.a{fill:#009ed6;}</style></defs><g transform="translate(0 -3.841)"><path class="a" d="M8.065,7.157h4.409V5.844a2,2,0,0,1,4.006,0V7.157h4.406V5.844a2,2,0,0,1,4.006,0V7.157H29.3V5.86a2,2,0,0,1,4.006,0v1.3h.663a3.4,3.4,0,0,1,3.4,3.393v6.3a.606.606,0,1,1-1.212,0V15.11h-16.1a.6.6,0,1,1,0-1.21h16.1V10.55A2.19,2.19,0,0,0,33.97,8.366h-.663V9.661a2,2,0,0,1-4.006,0V8.366H24.892V9.645a2,2,0,0,1-4.006,0V8.366H16.48V9.645a2,2,0,0,1-4.006,0V8.366H8.065V9.645a2,2,0,0,1-4.006,0V8.366H3.393A2.194,2.194,0,0,0,1.21,10.55V13.9h16.1a.6.6,0,1,1,0,1.21H1.21V32.975a.6.6,0,0,1-1.21,0V10.55A3.4,3.4,0,0,1,3.393,7.157h.665V5.844a2,2,0,0,1,4.006,0ZM32.176,30.673a.6.6,0,0,1,1.21,0V36a.6.6,0,0,1-.172.421l-3.7,4.349a.6.6,0,1,1-.922-.78l3.581-4.21Zm-3.688-.592a.6.6,0,1,1-.709-.979,8.524,8.524,0,0,1,8.376-.928v-8.58a.606.606,0,0,1,1.212,0v9.222a8.583,8.583,0,0,1,1.441,1.159A8.522,8.522,0,1,1,25.272,40.034H3.146A3.15,3.15,0,0,1,0,36.89V35.715a.6.6,0,0,1,1.21,0V36.89a1.944,1.944,0,0,0,1.937,1.935H24.737a8.517,8.517,0,0,1,.995-7.612.6.6,0,1,1,1,.679A7.226,7.226,0,0,0,25.469,36a7.322,7.322,0,1,0,3.018-5.92Zm-2.648-12.4h7.143a.605.605,0,0,1,.606.6v7.144a.606.606,0,0,1-.606.606H25.839a.606.606,0,0,1-.606-.606V18.281a.605.605,0,0,1,.606-.6Zm6.54,1.21H26.445v5.934h5.934ZM15.11,27.9h7.144a.606.606,0,0,1,.606.606v7.144a.606.606,0,0,1-.606.606H15.11a.6.6,0,0,1-.6-.606V28.51a.605.605,0,0,1,.6-.606Zm6.54,1.212H15.716v5.934H21.65ZM15.11,17.678h7.144a.6.6,0,0,1,.606.6v7.144a.6.6,0,0,1-.606.606H15.11a.6.6,0,0,1-.6-.606V18.281a.6.6,0,0,1,.6-.6Zm6.54,1.21H15.716v5.934H21.65ZM4.381,27.9h7.146a.605.605,0,0,1,.6.606v7.144a.605.605,0,0,1-.6.606H4.381a.6.6,0,0,1-.6-.606V28.51a.605.605,0,0,1,.6-.606Zm6.54,1.212H4.987v5.934h5.934ZM4.381,17.678h7.146a.6.6,0,0,1,.6.6v7.144a.6.6,0,0,1-.6.606H4.381a.6.6,0,0,1-.6-.606V18.281a.6.6,0,0,1,.6-.6Zm6.54,1.21H4.987v5.934h5.934ZM31.3,5.069a.8.8,0,0,0-.794.791v3.8a.792.792,0,0,0,1.585,0V5.86a.8.8,0,0,0-.791-.791ZM6.622,5.284a.793.793,0,0,0-1.354.56v3.8a.793.793,0,0,0,1.587,0v-3.8A.792.792,0,0,0,6.622,5.284Zm7.855-.233a.8.8,0,0,0-.793.793v3.8a.792.792,0,0,0,1.585,0v-3.8a.8.8,0,0,0-.791-.793Zm8.413,0a.8.8,0,0,0-.793.793v3.8a.793.793,0,0,0,1.587,0v-3.8a.8.8,0,0,0-.794-.793Z" transform="translate(0)"/></g></svg>