<svg xmlns="http://www.w3.org/2000/svg" width="22.895" height="23.668" viewBox="0 0 22.895 23.668"><defs><style>.a{fill:#fff;}</style></defs><g transform="translate(-19 -18)"><g transform="translate(19 18)"><path class="a" d="M30.447,18v1.477H28.6V32.771H39.679V30.924h1.846V21.531l-.1-.1L38.1,18.1l-.115-.1H30.447Zm.739.739h6.278v3.323h3.323v8.124h-9.6Zm7.016.519,2.066,2.066H38.2Zm-8.862.958h1.108V30.924H38.94v1.108h-9.6Zm3.323,1.108v.739h2.954v-.739Zm0,2.216v.739H39.31v-.739Zm0,2.216v.739H39.31v-.739Zm0,2.216v.739H39.31V27.97ZM19,32.771v7.755h5.908v-.739h2.9l4.35,1.812.173.069.162-.092,8.724-5.354h.012a1.466,1.466,0,0,0,.669-1.235,1.483,1.483,0,0,0-1.477-1.477,1.45,1.45,0,0,0-.485.081H39.91L39.9,33.6l-4.385,1.962a1.473,1.473,0,0,0-1.373-.946h-3.6l-2.527-1.085-.069-.023H24.908v-.739H19Zm.739.739H24.17v6.278H19.739Zm5.17.739h2.885l2.5,1.073.069.035H34.14a.739.739,0,0,1,0,1.477H28.97v.739h5.17a1.473,1.473,0,0,0,1.454-1.223l4.581-2.066a.722.722,0,0,1,.242-.035.733.733,0,0,1,.739.739.717.717,0,0,1-.335.612l-8.562,5.251L28,39.071l-.069-.023H24.908Z" transform="translate(-19 -18)"/></g></g></svg>