<svg xmlns="http://www.w3.org/2000/svg" width="21.264" height="21.471" viewBox="0 0 21.264 21.471"><defs><style>.a{fill:#0d93c9;}</style></defs><path class="a" d="M20.756,4.074a2.087,2.087,0,0,0-1.6-.705H3.875L3.721,2.216A2.333,2.333,0,0,0,1.752,0H.629a.629.629,0,1,0,0,1.258H1.752c.2,0,.629.427.722,1.124l1.8,13.505a2.544,2.544,0,0,0,.861,1.569,2.6,2.6,0,0,0,1.207.6,2.314,2.314,0,1,0,4.092.046h3.3a2.314,2.314,0,1,0,4.115,0H19.5a.629.629,0,1,0,0-1.258H6.805a1.35,1.35,0,0,1-1.284-1.124l-.132-.987H17.81a2.611,2.611,0,0,0,2.531-2.216l.9-6.767a2.087,2.087,0,0,0-.488-1.677ZM9.433,19.158A1.055,1.055,0,1,1,8.378,18.1,1.057,1.057,0,0,1,9.433,19.158Zm7.412,0A1.055,1.055,0,1,1,15.789,18.1,1.057,1.057,0,0,1,16.845,19.158ZM19.809,4.9A.846.846,0,0,1,20,5.584l-.378,2.838h-4.28l.253-3.8h3.567a.846.846,0,0,1,.651.276Zm-8.933,8.573-.253-3.8h3.37l-.253,3.8Zm-.337-5.053-.253-3.8H14.33l-.253,3.8Zm-1.514-3.8.253,3.8H4.549l-.506-3.8ZM4.716,9.68H9.362l.253,3.8H5.222Zm13.094,3.8H15l.253-3.8h4.2l-.356,2.671a1.35,1.35,0,0,1-1.284,1.124Zm0,0"/></svg>