<svg xmlns="http://www.w3.org/2000/svg" width="31.884" height="22.85" viewBox="0 0 31.884 22.85"><defs><style>.a{fill:#009ed6;}</style></defs><g transform="translate(0 -72.533)"><g transform="translate(4.251 89.006)"><path class="a" d="M71.455,337.067a3.188,3.188,0,1,0,3.188,3.188A3.192,3.192,0,0,0,71.455,337.067Zm0,5.314a2.126,2.126,0,1,1,2.126-2.126A2.128,2.128,0,0,1,71.455,342.381Z" transform="translate(-68.267 -337.067)"/></g><g transform="translate(22.319 89.006)"><path class="a" d="M361.588,337.067a3.188,3.188,0,1,0,3.188,3.188A3.192,3.192,0,0,0,361.588,337.067Zm0,5.314a2.126,2.126,0,1,1,2.126-2.126A2.128,2.128,0,0,1,361.588,342.381Z" transform="translate(-358.4 -337.067)"/></g><g transform="translate(20.193 78.378)"><g transform="translate(0 0)"><path class="a" d="M335.873,174.084l-4.783-7.44a.532.532,0,0,0-.447-.244H324.8a.531.531,0,0,0-.531.531v13.285a.531.531,0,0,0,.531.531h2.126v-1.063H325.33V167.463h5.024l4.541,7.064v5.158h-2.657v1.063h3.188a.531.531,0,0,0,.531-.531v-5.845A.53.53,0,0,0,335.873,174.084Z" transform="translate(-324.267 -166.4)"/></g></g><g transform="translate(22.319 80.504)"><g transform="translate(0 0)"><path class="a" d="M359.464,205.316V201.6h4.251v-1.063h-4.783a.531.531,0,0,0-.531.531v4.783a.531.531,0,0,0,.531.531H366.9v-1.063h-7.44Z" transform="translate(-358.401 -200.533)"/></g></g><g transform="translate(0 74.659)"><g transform="translate(0 0)"><path class="a" d="M20.725,106.667H.531A.532.532,0,0,0,0,107.2v17a.531.531,0,0,0,.531.531H4.783v-1.063H1.063V107.73h19.13v15.942H10.1v1.063H20.725a.531.531,0,0,0,.531-.531v-17A.531.531,0,0,0,20.725,106.667Z" transform="translate(0 -106.667)"/></g></g><g transform="translate(0.531 89.538)"><rect class="a" width="3.188" height="1.063"/></g><g transform="translate(11.159 89.538)"><rect class="a" width="9.034" height="1.063"/></g><g transform="translate(29.227 89.538)"><rect class="a" width="2.126" height="1.063"/></g><g transform="translate(2.126 76.784)"><g transform="translate(0 0)"><rect class="a" width="18.599" height="1.063"/></g></g><g transform="translate(6.908 91.663)"><g transform="translate(0 0)"><rect class="a" width="1.063" height="1.063"/></g></g><g transform="translate(24.976 91.663)"><g transform="translate(0 0)"><rect class="a" width="1.063" height="1.063"/></g></g><g transform="translate(2.126 72.533)"><g transform="translate(0 0)"><rect class="a" width="7.44" height="1.063"/></g></g><g transform="translate(0 72.533)"><g transform="translate(0 0)"><rect class="a" width="1.063" height="1.063"/></g></g></g></svg>