<svg xmlns="http://www.w3.org/2000/svg" width="22.281" height="25.76" viewBox="0 0 22.281 25.76"><defs><style>.a{fill:#fff;}</style></defs><g transform="translate(-16 -15.067)"><path class="a" d="M383.891,128.655c0,.057,0,.114-.006.171l.855.062c.006-.077.008-.155.008-.233V128h-.857Z" transform="translate(-348.181 -106.884)"/><path class="a" d="M334.894,18.747v1.512h.857V18.747a3.215,3.215,0,0,0-1.653-2.809l-1.567-.87-.416.749,1.567.87A2.358,2.358,0,0,1,334.894,18.747Z" transform="translate(-299.184 0)"/><path class="a" d="M208.771,34.235l.943.524V42.98a.428.428,0,0,0,.208.367l2.142,1.285a.428.428,0,0,0,.441,0l2.142-1.285a.428.428,0,0,0,.208-.367V41.695a.428.428,0,0,0-.125-.3l-.554-.554.554-.554a.428.428,0,0,0,0-.606l-.554-.554.554-.554a.428.428,0,0,0,0-.606l-.554-.554.554-.554a.428.428,0,0,0,.125-.3v-1.8l.943-.524a1.5,1.5,0,0,0,.771-1.311V29.9a1.5,1.5,0,0,0-.771-1.311l-2.785-1.547a1.491,1.491,0,0,0-1.457,0l-2.785,1.547A1.5,1.5,0,0,0,208,29.9v3.024A1.5,1.5,0,0,0,208.771,34.235ZM214,36.376l-.731.731a.428.428,0,0,0,0,.606l.554.554-.554.554a.428.428,0,0,0,0,.606l.554.554-.554.554a.428.428,0,0,0,0,.606l.731.731v.865l-1.714,1.028-1.714-1.028v-7.5l.857.476v4.7h.857V35.972a1.5,1.5,0,0,0,.728-.19l.986-.548ZM208.857,29.9a.643.643,0,0,1,.331-.562l2.785-1.547a.639.639,0,0,1,.624,0l2.785,1.547a.643.643,0,0,1,.331.562v3.024a.643.643,0,0,1-.331.562L212.6,35.033a.639.639,0,0,1-.624,0l-2.785-1.547a.643.643,0,0,1-.331-.562Z" transform="translate(-181.717 -11.153)"/><path class="a" d="M265.285,66.571A1.285,1.285,0,1,0,264,65.285,1.285,1.285,0,0,0,265.285,66.571Zm0-1.714a.428.428,0,1,1-.428.428A.428.428,0,0,1,265.285,64.857Z" transform="translate(-234.717 -46.312)"/><path class="a" d="M264,128h2.571v.857H264Z" transform="translate(-234.717 -106.884)"/><path class="a" d="M272,296h.857v.857H272Z" transform="translate(-242.289 -265.886)"/><path class="a" d="M38.17,347.065a1.56,1.56,0,0,0-.852-.875,1.534,1.534,0,0,0-1.2,0l-2.77,1.176a1.5,1.5,0,0,0-1.492-1.654H28.53a2.178,2.178,0,0,1-.968-.229,10.061,10.061,0,0,0-4.477-1.057H22A.428.428,0,0,0,21.57,344H16v.857h5.142V350H16v.857h5.57a.428.428,0,0,0,.428-.428v-.163l3.2,1.328a7.415,7.415,0,0,0,5.453.06l6.619-2.524a1.559,1.559,0,0,0,.875-.834,1.586,1.586,0,0,0,.025-1.23Zm-.809.884a.708.708,0,0,1-.4.38l-6.619,2.524a6.558,6.558,0,0,1-4.822-.052L22,349.336v-4.05h1.086a9.2,9.2,0,0,1,4.093.966,3.038,3.038,0,0,0,1.352.319h3.324a.642.642,0,1,1,.025,1.284H26.712v.857h5.142l.089,0a2.648,2.648,0,0,0,.926-.209l3.582-1.521a.684.684,0,0,1,.535,0,.709.709,0,0,1,.387.4.735.735,0,0,1-.012.57Z" transform="translate(0 -311.316)"/><path class="a" d="M80,424h.857v.857H80Z" transform="translate(-60.572 -387.031)"/><path class="a" d="M208,192h.857v5.57H208Z" transform="translate(-181.717 -167.457)"/></g></svg>