<svg xmlns="http://www.w3.org/2000/svg" width="56.394" height="50.001" viewBox="0 0 56.394 50.001"><defs><style>.a{fill:#ff6b6b;}.b{fill:#e62e77;}.c{fill:#f3f5f9;}.d{fill:#e2dff4;}</style></defs><g transform="translate(0.001 -29.022)"><path class="a" d="M55.728,71.544,32.515,31.518a4.985,4.985,0,0,0-8.638,0L.665,71.544a4.986,4.986,0,0,0,4.319,7.479H51.409a4.987,4.987,0,0,0,4.319-7.479Z" transform="translate(0 0)"/><path class="b" d="M283.553,76.529a5,5,0,0,0,0-4.985L260.341,31.518a5,5,0,0,0-4.319-2.5v50h23.213A5,5,0,0,0,283.553,76.529Z" transform="translate(-227.826)"/><path class="c" d="M79.549,99.892,56.337,59.864a1.682,1.682,0,0,0-2.914,0v0L30.21,99.892a1.681,1.681,0,0,0,1.457,2.523H78.093a1.682,1.682,0,0,0,1.457-2.523Z" transform="translate(-26.683 -26.696)"/><path class="d" d="M280.691,101.575a1.685,1.685,0,0,0,0-1.683L257.479,59.864a1.688,1.688,0,0,0-1.457-.842v43.393h23.213A1.686,1.686,0,0,0,280.691,101.575Z" transform="translate(-227.826 -26.696)"/><g transform="translate(26.544 52.591)"><path class="a" d="M242.674,243.022a1.651,1.651,0,0,0-1.652,1.652v6.608a1.652,1.652,0,1,0,3.3,0v-6.608A1.651,1.651,0,0,0,242.674,243.022Z" transform="translate(-241.022 -243.022)"/><circle class="a" cx="1.652" cy="1.652" r="1.652" transform="translate(0 13.216)"/></g><g transform="translate(28.196 52.591)"><path class="b" d="M257.674,251.282v-6.608a1.651,1.651,0,0,0-1.652-1.652v9.912A1.651,1.651,0,0,0,257.674,251.282Z" transform="translate(-256.022 -243.022)"/><path class="b" d="M257.674,364.674a1.652,1.652,0,0,0-1.652-1.652v3.3A1.652,1.652,0,0,0,257.674,364.674Z" transform="translate(-256.022 -349.806)"/></g></g></svg>